<?xml version="1.0" standalone="no"?>
<!DOCTYPE svg PUBLIC "-//W3C//DTD SVG 20010904//EN"
 "http://www.w3.org/TR/2001/REC-SVG-20010904/DTD/svg10.dtd">
<svg version="1.0" xmlns="http://www.w3.org/2000/svg"
 width="700.000000pt" height="700.000000pt" viewBox="0 0 700.000000 700.000000"
 preserveAspectRatio="xMidYMid meet">
<metadata>
Created by potrace 1.11, written by Peter Selinger 2001-2013
</metadata>
<g transform="translate(0.000000,700.000000) scale(0.100000,-0.100000)"
fill="#000000" stroke="none">
<path d="M780 6604 c-195 -51 -351 -205 -399 -394 -85 -334 152 -659 494 -678
51 -2 115 1 148 8 89 18 194 76 266 146 l64 63 81 -15 c44 -8 92 -16 106 -19
13 -2 42 -7 64 -11 22 -3 43 -7 46 -9 4 -2 29 -7 56 -11 27 -3 57 -8 67 -10 9
-2 26 -6 36 -8 11 -3 41 -8 68 -11 26 -4 64 -11 83 -15 19 -5 51 -11 70 -14
19 -3 46 -8 60 -10 21 -4 226 -41 345 -61 17 -3 53 -10 81 -16 28 -5 64 -12
80 -15 25 -4 97 -17 219 -39 17 -3 57 -10 90 -15 33 -6 78 -14 100 -18 l40 -7
12 -90 c30 -211 123 -390 281 -542 l64 -62 -34 -63 c-20 -35 -47 -83 -60 -108
-14 -25 -110 -198 -213 -385 -259 -468 -288 -521 -325 -590 -18 -33 -55 -100
-83 -150 -28 -49 -60 -108 -72 -130 -32 -59 -85 -153 -113 -205 -39 -72 -35
-70 -108 -44 -244 89 -591 94 -846 13 -510 -161 -872 -572 -965 -1093 -25
-141 -22 -380 7 -501 5 -22 9 -42 10 -45 9 -57 56 -192 101 -287 65 -136 153
-259 273 -378 126 -125 222 -194 369 -264 205 -98 360 -134 582 -135 184 -1
234 4 366 38 512 130 903 541 1013 1066 22 106 25 141 26 261 l0 106 186 47
c102 26 193 49 203 51 24 6 273 70 471 121 96 25 182 47 190 49 8 2 35 8 59
15 23 6 44 10 45 8 98 -157 217 -284 349 -372 112 -75 272 -147 357 -162 14
-3 31 -7 38 -9 59 -21 308 -34 385 -20 15 3 54 10 87 15 407 72 765 407 879
824 29 105 32 133 36 282 14 564 -376 1040 -940 1145 -109 21 -289 18 -410 -5
-60 -12 -71 -14 -129 -31 -272 -79 -535 -298 -673 -560 -28 -54 -72 -155 -77
-180 -2 -5 -8 -30 -15 -54 -37 -129 -50 -345 -29 -460 5 -29 8 -55 6 -57 -3
-3 -334 -90 -378 -99 -8 -2 -123 -31 -255 -64 -132 -34 -247 -64 -255 -66 -8
-1 -52 -13 -97 -24 -45 -12 -88 -21 -95 -21 -8 0 -20 17 -27 37 -26 71 -92
197 -149 283 -53 79 -226 266 -281 303 l-23 15 43 79 c23 43 97 177 164 298
67 121 141 256 165 300 24 44 73 134 110 200 109 196 132 237 169 306 20 36
95 172 166 302 l130 238 55 -8 c71 -10 251 -10 315 0 247 39 490 205 621 424
84 141 122 272 129 443 18 489 -355 899 -842 927 -371 21 -717 -179 -871 -505
l-27 -57 -50 7 c-28 4 -75 12 -105 18 -164 30 -336 60 -378 66 -26 3 -50 8
-53 10 -3 1 -57 12 -120 23 -63 11 -215 39 -339 61 -124 22 -238 43 -255 45
-16 3 -52 10 -80 15 -27 5 -68 12 -90 16 -22 3 -47 7 -55 9 -8 2 -31 7 -50 11
-19 3 -42 7 -50 9 -8 2 -21 4 -27 4 -8 1 -13 14 -13 32 0 41 -44 170 -76 222
-37 59 -143 161 -195 187 -130 64 -282 85 -399 54z m207 -378 c93 -48 124
-161 67 -248 -82 -127 -286 -80 -310 70 -7 47 14 118 45 146 55 50 138 64 198
32z m3096 -235 c130 -30 268 -134 334 -251 113 -199 86 -454 -64 -621 -159
-176 -409 -223 -632 -119 -70 33 -194 149 -225 210 -59 116 -80 231 -59 315 7
28 13 65 13 84 0 53 55 155 122 227 131 140 323 198 511 155z m-2798 -28 c-8
-34 -20 -47 -34 -39 -15 10 -14 53 2 59 30 13 39 7 32 -20z m2000 -344 c3 -4
3 -20 -1 -34 -5 -21 -11 -25 -33 -21 -14 2 -29 5 -33 5 -13 2 -9 59 4 63 17 6
57 -2 63 -13z m2381 -2150 c294 -76 520 -318 572 -614 4 -22 6 -94 6 -160 -2
-105 -6 -132 -32 -211 -78 -235 -253 -414 -477 -489 -100 -34 -134 -39 -250
-39 -113 -1 -157 6 -247 35 -252 83 -439 286 -507 550 -24 94 -23 283 3 377
56 206 193 381 376 479 69 37 154 69 205 77 21 4 41 8 43 11 2 2 55 4 117 4
80 -1 136 -6 191 -20z m-3105 -629 c26 -14 24 -32 -3 -28 -13 2 -24 11 -26 21
-4 20 2 21 29 7z m-476 -75 c226 -28 456 -148 610 -318 406 -445 341 -1136
-140 -1498 -100 -75 -286 -158 -390 -175 -16 -2 -52 -8 -80 -12 -102 -16 -258
-6 -380 24 -285 70 -544 284 -665 549 -54 117 -75 187 -87 290 -31 260 27 506
168 711 216 311 588 477 964 429z m2496 -382 c12 -12 3 -53 -11 -53 -6 0 -30
52 -30 66 0 6 31 -3 41 -13z m-1427 -359 c11 -28 6 -54 -9 -54 -22 0 -35 31
-22 52 14 22 23 23 31 2z"/>
<path d="M1237 1936 c-41 -18 -82 -59 -102 -103 -15 -31 -17 -53 -11 -132 28
-440 378 -783 821 -805 97 -5 170 39 201 121 31 80 0 174 -72 221 -30 20 -52
25 -159 36 -63 7 -154 42 -213 83 -130 89 -207 235 -213 403 -3 58 -40 129
-84 158 -43 27 -128 37 -168 18z"/>
</g>
</svg>
